<svg xmlns="http://www.w3.org/2000/svg" viewBox="0 0 512 512" width="512" height="512">
  <!-- Background circle -->
  <circle cx="256" cy="256" r="256" fill="#FFD700"/>
  
  <!-- Inner circle -->
  <circle cx="256" cy="256" r="220" fill="#FF6B35" stroke="#B8860B" stroke-width="8"/>
  
  <!-- Crown shape -->
  <path d="M96 192 L160 128 L256 160 L352 128 L416 192 L384 320 L128 320 Z" fill="#FFD700" stroke="#B8860B" stroke-width="6"/>
  
  <!-- Crown jewels -->
  <circle cx="192" cy="224" r="20" fill="#FF1744"/>
  <circle cx="256" cy="192" r="24" fill="#2196F3"/>
  <circle cx="320" cy="224" r="20" fill="#4CAF50"/>
  
  <!-- Additional smaller jewels -->
  <circle cx="160" cy="256" r="12" fill="#9C27B0"/>
  <circle cx="352" cy="256" r="12" fill="#FF9800"/>
  
  <!-- Crown base -->
  <rect x="128" y="320" width="256" height="64" fill="#B8860B"/>
  
  <!-- Highlight -->
  <path d="M128 192 L192 160 L256 176 L320 160 L384 192 L352 256 L160 256 Z" fill="#FFE082" opacity="0.7"/>
  
  <!-- Additional decorative elements -->
  <circle cx="160" cy="288" r="8" fill="#FFEB3B"/>
  <circle cx="352" cy="288" r="8" fill="#FFEB3B"/>
  <circle cx="256" cy="280" r="10" fill="#FFEB3B"/>
  
  <!-- Text "CLASH ROYALE" -->
  <text x="256" y="420" font-family="Arial, sans-serif" font-size="32" font-weight="bold" text-anchor="middle" fill="#B8860B">CLASH</text>
  <text x="256" y="450" font-family="Arial, sans-serif" font-size="32" font-weight="bold" text-anchor="middle" fill="#B8860B">ROYALE</text>
</svg>